#Comment line ignore any data following # character 
#Hierarchical Translation and Rotation (.htr) file 
[Header]	
#Header keywords are followed by a single value 
FileType HTR		#Single word string
DataType HTRS		#Translation followed by rotation and scale data
FileVersion 1		#integer
NumSegments 84		#integer
NumFrames 2		#integer
DataFrameRate 30		#integer, data frame rate in this file
EulerRotationOrder ZYX
CalibrationUnits mm
RotationUnits Degrees
GlobalAxisofGravity Y
BoneLengthAxis Y
ScaleFactor 1.00
[SegmentNames&Hierarchy]
#CHILD	PARENT
MASTER GLOBAL
root MASTER
chest root
L_mid_tent01 root
R_mid_tent01 root
spine01 root
Bip01_Neck chest
L_humerus chest
R_humerus chest
weapon_bone chest
Bip01_Head Bip01_Neck
eye_left_bone Bip01_Head
eye_right_bone Bip01_Head
L_forearm L_humerus
L_front_hand L_forearm
L_weapon_bone L_forearm
L_front_hand01_01 L_front_hand
L_front_hand02_01 L_front_hand
L_front_hand03_01 L_front_hand
L_front_hand01_02 L_front_hand01_01
L_front_hand02_02 L_front_hand02_01
L_front_hand03_02 L_front_hand03_01
R_forearm R_humerus
R_front_hand R_forearm
R_weapon_bone R_forearm
R_front_hand01_01 R_front_hand
R_front_hand02_01 R_front_hand
R_front_hand03_01 R_front_hand
R_front_hand01_02 R_front_hand01_01
R_front_hand02_02 R_front_hand02_01
R_front_hand03_02 R_front_hand03_01
null_rope01_connect L_mid_tent01
Rope1_Seg01 null_rope01_connect
Rope1_Seg02 Rope1_Seg01
Rope1_Seg03 Rope1_Seg02
Rope1_Seg04 Rope1_Seg03
Rope1_Seg05 Rope1_Seg04
Rope1_Seg06 Rope1_Seg05
Rope1_Seg07 Rope1_Seg06
Rope1_Seg09 Rope1_Seg07
L_mid_hand01 Rope1_Seg09
L_mid_hand02 Rope1_Seg09
L_mid_hand03 Rope1_Seg09
null_rope02_connect R_mid_tent01
Rope2_Seg01 null_rope02_connect
Rope2_Seg02 Rope2_Seg01
Rope2_Seg03 Rope2_Seg02
Rope2_Seg04 Rope2_Seg03
Rope2_Seg05 Rope2_Seg04
Rope2_Seg06 Rope2_Seg05
Rope2_Seg07 Rope2_Seg06
Rope2_Seg09 Rope2_Seg07
R_mid_hand01 Rope2_Seg09
R_mid_hand02 Rope2_Seg09
R_mid_hand03 Rope2_Seg09
spine02 spine01
spine03 spine02
pelvis spine03
null_rope03_connect pelvis
null_rope04_connect pelvis
Rope3_Seg01 null_rope03_connect
Rope3_Seg02 Rope3_Seg01
Rope3_Seg03 Rope3_Seg02
Rope3_Seg04 Rope3_Seg03
Rope3_Seg05 Rope3_Seg04
Rope3_Seg06 Rope3_Seg05
Rope3_Seg07 Rope3_Seg06
Rope3_Seg08 Rope3_Seg07
Rope3_Seg09 Rope3_Seg08
R_rear_hand01 Rope3_Seg09
R_rear_hand02 Rope3_Seg09
R_rear_hand03 Rope3_Seg09
Rope4_Seg01 null_rope04_connect
Rope4_Seg02 Rope4_Seg01
Rope4_Seg03 Rope4_Seg02
Rope4_Seg04 Rope4_Seg03
Rope4_Seg05 Rope4_Seg04
Rope4_Seg06 Rope4_Seg05
Rope4_Seg07 Rope4_Seg06
Rope4_Seg08 Rope4_Seg07
Rope4_Seg09 Rope4_Seg08
L_rear_hand01 Rope4_Seg09
L_rear_hand02 Rope4_Seg09
L_rear_hand03 Rope4_Seg09
[BasePosition]
#SegmentName Tx, Ty, Tz, Rx, Ry, Rz, BoneLength
MASTER 0.000000 0.000000 0.000000 -90.000000 0.000000 0.000000 10.000000 
root 0.000000 0.000000 0.000000 0.000000 0.000000 0.000000 10.000000 
chest 0.000000 0.000000 0.000000 0.000000 0.000000 0.000000 10.000000 
L_mid_tent01 0.000000 0.000000 0.000000 0.000000 0.000000 0.000000 10.000000 
R_mid_tent01 0.000000 0.000000 0.000000 0.000000 0.000000 0.000000 10.000000 
spine01 0.000000 0.000000 0.000000 0.000000 0.000000 0.000000 10.000000 
Bip01_Neck 0.000000 0.000000 0.000000 0.000000 0.000000 0.000000 10.000000 
L_humerus 0.000000 0.000000 0.000000 0.000000 0.000000 0.000000 10.000000 
R_humerus 0.000000 0.000000 0.000000 0.000000 0.000000 0.000000 10.000000 
weapon_bone 0.000000 0.000000 0.000000 0.000000 0.000000 0.000000 10.000000 
Bip01_Head 0.000000 0.000000 0.000000 0.000000 0.000000 0.000000 10.000000 
eye_left_bone 0.000000 0.000000 0.000000 0.000000 0.000000 0.000000 10.000000 
eye_right_bone 0.000000 0.000000 0.000000 0.000000 0.000000 0.000000 10.000000 
L_forearm 0.000000 0.000000 0.000000 0.000000 0.000000 0.000000 10.000000 
L_front_hand 0.000000 0.000000 0.000000 0.000000 0.000000 0.000000 10.000000 
L_weapon_bone 0.000000 0.000000 0.000000 0.000000 0.000000 0.000000 10.000000 
L_front_hand01_01 0.000000 0.000000 0.000000 0.000000 0.000000 0.000000 10.000000 
L_front_hand02_01 0.000000 0.000000 0.000000 0.000000 0.000000 0.000000 10.000000 
L_front_hand03_01 0.000000 0.000000 0.000000 0.000000 0.000000 0.000000 10.000000 
L_front_hand01_02 0.000000 0.000000 0.000000 0.000000 0.000000 0.000000 10.000000 
L_front_hand02_02 0.000000 0.000000 0.000000 0.000000 0.000000 0.000000 10.000000 
L_front_hand03_02 0.000000 0.000000 0.000000 0.000000 0.000000 0.000000 10.000000 
R_forearm 0.000000 0.000000 0.000000 0.000000 0.000000 0.000000 10.000000 
R_front_hand 0.000000 0.000000 0.000000 0.000000 0.000000 0.000000 10.000000 
R_weapon_bone 0.000000 0.000000 0.000000 0.000000 0.000000 0.000000 10.000000 
R_front_hand01_01 0.000000 0.000000 0.000000 0.000000 0.000000 0.000000 10.000000 
R_front_hand02_01 0.000000 0.000000 0.000000 0.000000 0.000000 0.000000 10.000000 
R_front_hand03_01 0.000000 0.000000 0.000000 0.000000 0.000000 0.000000 10.000000 
R_front_hand01_02 0.000000 0.000000 0.000000 0.000000 0.000000 0.000000 10.000000 
R_front_hand02_02 0.000000 0.000000 0.000000 0.000000 0.000000 0.000000 10.000000 
R_front_hand03_02 0.000000 0.000000 0.000000 0.000000 0.000000 0.000000 10.000000 
null_rope01_connect 0.000000 0.000000 0.000000 0.000000 0.000000 0.000000 10.000000 
Rope1_Seg01 0.000000 0.000000 0.000000 0.000000 0.000000 0.000000 10.000000 
Rope1_Seg02 0.000000 0.000000 0.000000 0.000000 0.000000 0.000000 10.000000 
Rope1_Seg03 0.000000 0.000000 0.000000 0.000000 0.000000 0.000000 10.000000 
Rope1_Seg04 0.000000 0.000000 0.000000 0.000000 0.000000 0.000000 10.000000 
Rope1_Seg05 0.000000 0.000000 0.000000 0.000000 0.000000 0.000000 10.000000 
Rope1_Seg06 0.000000 0.000000 0.000000 0.000000 0.000000 0.000000 10.000000 
Rope1_Seg07 0.000000 0.000000 0.000000 0.000000 0.000000 0.000000 10.000000 
Rope1_Seg09 0.000000 0.000000 0.000000 0.000000 0.000000 0.000000 10.000000 
L_mid_hand01 0.000000 0.000000 0.000000 0.000000 0.000000 0.000000 10.000000 
L_mid_hand02 0.000000 0.000000 0.000000 0.000000 0.000000 0.000000 10.000000 
L_mid_hand03 0.000000 0.000000 0.000000 0.000000 0.000000 0.000000 10.000000 
null_rope02_connect 0.000000 0.000000 0.000000 0.000000 0.000000 0.000000 10.000000 
Rope2_Seg01 0.000000 0.000000 0.000000 0.000000 0.000000 0.000000 10.000000 
Rope2_Seg02 0.000000 0.000000 0.000000 0.000000 0.000000 0.000000 10.000000 
Rope2_Seg03 0.000000 0.000000 0.000000 0.000000 0.000000 0.000000 10.000000 
Rope2_Seg04 0.000000 0.000000 0.000000 0.000000 0.000000 0.000000 10.000000 
Rope2_Seg05 0.000000 0.000000 0.000000 0.000000 0.000000 0.000000 10.000000 
Rope2_Seg06 0.000000 0.000000 0.000000 0.000000 0.000000 0.000000 10.000000 
Rope2_Seg07 0.000000 0.000000 0.000000 0.000000 0.000000 0.000000 10.000000 
Rope2_Seg09 0.000000 0.000000 0.000000 0.000000 0.000000 0.000000 10.000000 
R_mid_hand01 0.000000 0.000000 0.000000 0.000000 0.000000 0.000000 10.000000 
R_mid_hand02 0.000000 0.000000 0.000000 0.000000 0.000000 0.000000 10.000000 
R_mid_hand03 0.000000 0.000000 0.000000 0.000000 0.000000 0.000000 10.000000 
spine02 0.000000 0.000000 0.000000 0.000000 0.000000 0.000000 10.000000 
spine03 0.000000 0.000000 0.000000 0.000000 0.000000 0.000000 10.000000 
pelvis 0.000000 0.000000 0.000000 0.000000 0.000000 0.000000 10.000000 
null_rope03_connect 0.000000 0.000000 0.000000 0.000000 0.000000 0.000000 10.000000 
null_rope04_connect 0.000000 0.000000 0.000000 0.000000 0.000000 0.000000 10.000000 
Rope3_Seg01 0.000000 0.000000 0.000000 0.000000 0.000000 0.000000 10.000000 
Rope3_Seg02 0.000000 0.000000 0.000000 0.000000 0.000000 0.000000 10.000000 
Rope3_Seg03 0.000000 0.000000 0.000000 0.000000 0.000000 0.000000 10.000000 
Rope3_Seg04 0.000000 0.000000 0.000000 0.000000 0.000000 0.000000 10.000000 
Rope3_Seg05 0.000000 0.000000 0.000000 0.000000 0.000000 0.000000 10.000000 
Rope3_Seg06 0.000000 0.000000 0.000000 0.000000 0.000000 0.000000 10.000000 
Rope3_Seg07 0.000000 0.000000 0.000000 0.000000 0.000000 0.000000 10.000000 
Rope3_Seg08 0.000000 0.000000 0.000000 0.000000 0.000000 0.000000 10.000000 
Rope3_Seg09 0.000000 0.000000 0.000000 0.000000 0.000000 0.000000 10.000000 
R_rear_hand01 0.000000 0.000000 0.000000 0.000000 0.000000 0.000000 10.000000 
R_rear_hand02 0.000000 0.000000 0.000000 0.000000 0.000000 0.000000 10.000000 
R_rear_hand03 0.000000 0.000000 0.000000 0.000000 0.000000 0.000000 10.000000 
Rope4_Seg01 0.000000 0.000000 0.000000 0.000000 0.000000 0.000000 10.000000 
Rope4_Seg02 0.000000 0.000000 0.000000 0.000000 0.000000 0.000000 10.000000 
Rope4_Seg03 0.000000 0.000000 0.000000 0.000000 0.000000 0.000000 10.000000 
Rope4_Seg04 0.000000 0.000000 0.000000 0.000000 0.000000 0.000000 10.000000 
Rope4_Seg05 0.000000 0.000000 0.000000 0.000000 0.000000 0.000000 10.000000 
Rope4_Seg06 0.000000 0.000000 0.000000 0.000000 0.000000 0.000000 10.000000 
Rope4_Seg07 0.000000 0.000000 0.000000 0.000000 0.000000 0.000000 10.000000 
Rope4_Seg08 0.000000 0.000000 0.000000 0.000000 0.000000 0.000000 10.000000 
Rope4_Seg09 0.000000 0.000000 0.000000 0.000000 0.000000 0.000000 10.000000 
L_rear_hand01 0.000000 0.000000 0.000000 0.000000 0.000000 0.000000 10.000000 
L_rear_hand02 0.000000 0.000000 0.000000 0.000000 0.000000 0.000000 10.000000 
L_rear_hand03 0.000000 0.000000 0.000000 0.000000 0.000000 0.000000 10.000000 
#Beginning of Data. Separated by tabs
#Fr	Tx	Ty	Tz	Rx	Ry	Rz	SF
[MASTER]
26 0.000000 0.000000 0.000000 0.001660 0.001660 0.001660 0.000000
27 0.000000 0.000000 0.000000 0.001660 0.001660 0.001660 0.000000
[root]
26 -29.075495 -56.552727 1501.541748 -80.651489 -40.220917 -87.336838 1502.887573
27 -28.553673 -56.644520 1501.477783 -79.719147 -39.780491 -87.567726 1502.817261
[chest]
26 -84.512650 -34.090519 0.000000 -8.145475 -10.332908 173.592514 91.129311
27 -84.512650 -34.090519 0.000000 -6.829232 -7.729827 175.070450 91.129311
[L_mid_tent01]
26 27.299181 22.178980 -249.918701 3.862628 36.229202 81.347610 252.381683
27 27.299185 22.178976 -249.918701 3.862628 36.229202 81.347610 252.381683
[R_mid_tent01]
26 23.228794 24.509907 226.238495 160.432037 -47.061241 87.899765 228.744751
27 23.228794 24.509907 226.238495 160.432037 -47.061241 87.899765 228.744751
[spine01]
26 -0.361383 -0.195265 0.000000 0.002062 0.001122 32.879829 0.410763
27 -0.361383 -0.195265 0.000000 0.002062 0.001122 32.879829 0.410763
[Bip01_Neck]
26 165.484543 71.581718 0.000119 176.643677 -1.657967 43.431911 180.302734
27 165.484543 71.581718 0.000119 176.643677 -1.657967 43.431911 180.302734
[L_humerus]
26 -13.983130 -135.272980 -120.471481 156.317398 70.210068 -112.010254 181.680161
27 -13.983130 -135.272980 -120.471481 156.317398 70.210068 -112.010254 181.680161
[R_humerus]
26 -13.983309 -135.273102 125.287651 -172.382263 -66.903831 -92.553993 184.909012
27 -13.983309 -135.273102 125.287651 -172.382263 -66.903831 -92.553993 184.909012
[weapon_bone]
26 235.964890 -300.705902 0.000000 0.000000 -89.951546 -128.212341 382.234833
27 235.964890 -300.705902 0.000000 0.000000 -89.951546 -128.212341 382.234833
[Bip01_Head]
26 213.444199 185.715393 11.776928 13.630918 3.251934 -43.889671 283.173676
27 213.444199 185.715393 11.776927 11.782911 3.263714 -43.890343 283.173676
[eye_left_bone]
26 -24.626970 125.451866 -64.772606 0.000000 -90.000000 -99.840431 143.318359
27 -24.626970 125.451866 -64.772606 0.000000 -90.000000 -99.840431 143.318359
[eye_right_bone]
26 -24.626970 125.451866 64.327362 0.000000 -89.965736 80.156380 143.117676
27 -24.626970 125.451866 64.327362 0.000000 -89.965736 80.156380 143.117676
[L_forearm]
26 322.776093 0.000000 -0.000119 0.000396 -0.002314 -109.419975 322.776093
27 322.776093 0.000000 -0.000119 0.000396 -0.002314 -109.419975 322.776093
[L_front_hand]
26 241.149185 -0.042021 -3.300071 -178.667953 -1.835447 -27.422350 241.171753
27 241.149185 -0.042021 -3.300071 -178.667953 -1.835447 -27.422342 241.171753
[L_weapon_bone]
26 156.183838 0.000000 0.000000 0.000014 0.000007 0.000001 156.183838
27 156.183838 0.000000 0.000000 0.000014 0.000007 0.000001 156.183838
[L_front_hand01_01]
26 86.095154 20.947098 -0.655860 -0.342291 -0.495149 72.451675 88.609184
27 86.095154 20.947098 -0.655860 -0.349230 -0.490138 73.139862 88.609184
[L_front_hand02_01]
26 86.935165 -11.437475 24.513514 150.048462 -58.519783 -56.305634 91.046425
27 86.935165 -11.437475 24.513514 151.025070 -58.854908 -57.448093 91.046425
[L_front_hand03_01]
26 86.637497 -14.123976 -20.424902 -149.869949 56.734909 -57.903400 90.126129
27 86.637497 -14.123976 -20.424902 -150.781433 57.074547 -58.996464 90.126129
[L_front_hand01_02]
26 71.020905 -0.000179 0.000030 0.000322 -0.002325 -105.783043 71.020905
27 71.020905 -0.000179 0.000030 0.000323 -0.002325 -105.838058 71.020905
[L_front_hand02_02]
26 71.020927 -0.000119 0.000060 0.000322 -0.002325 -105.783043 71.020927
27 71.020927 -0.000119 0.000060 0.000323 -0.002325 -105.838058 71.020927
[L_front_hand03_02]
26 71.020905 -0.000060 0.000060 0.000322 -0.002325 -105.783043 71.020905
27 71.020905 -0.000060 0.000060 0.000323 -0.002325 -105.838058 71.020905
[R_forearm]
26 322.776428 -0.000060 0.000030 0.202103 0.065158 -108.062805 322.776428
27 322.776428 -0.000060 0.000030 0.202103 0.065158 -108.062805 322.776428
[R_front_hand]
26 238.847015 -0.006795 2.210259 -2.635298 -10.645461 -26.312506 238.857239
27 238.847015 -0.006795 2.210259 -2.635298 -10.645461 -26.312506 238.857239
[R_weapon_bone]
26 155.664093 0.002503 -0.000030 0.003487 0.001180 -90.988930 155.664078
27 155.664093 0.002503 -0.000030 0.003487 0.001180 -90.988930 155.664078
[R_front_hand01_01]
26 87.624611 14.231146 22.918642 -153.375839 -59.587151 60.286892 91.683487
27 87.624611 14.231146 22.918642 -154.293076 -59.856686 61.349701 91.683487
[R_front_hand02_01]
26 89.356956 14.367283 -19.491137 153.420532 57.944527 62.356834 92.579636
27 89.356956 14.367283 -19.491137 154.283218 58.213089 63.373535 92.579636
[R_front_hand03_01]
26 87.286232 -22.307278 -0.143439 0.155221 -0.427320 -74.955528 90.091743
27 87.286232 -22.307278 -0.143439 0.161369 -0.423469 -75.555016 90.091743
[R_front_hand01_02]
26 71.020905 0.000060 0.000119 0.002323 -0.000334 106.381714 71.020905
27 71.020905 0.000060 0.000119 0.002323 -0.000334 106.381714 71.020905
[R_front_hand02_02]
26 71.020844 -0.000030 -0.000119 0.002323 -0.000334 106.381714 71.020836
27 71.020844 -0.000030 -0.000119 0.002323 -0.000334 106.381714 71.020836
[R_front_hand03_02]
26 71.020905 0.000000 0.000030 0.002323 -0.000334 106.381714 71.020905
27 71.020905 0.000000 0.000030 0.002323 -0.000334 106.381714 71.020905
[null_rope01_connect]
26 328.732483 0.000000 -0.000238 -122.927544 -64.797661 172.602859 328.732483
27 328.732483 0.000000 -0.000238 -122.566505 -65.479179 171.683960 328.732483
[Rope1_Seg01]
26 -0.000022 0.000006 0.000025 107.175301 7.756122 -154.330017 0.000034
27 -0.000022 0.000005 0.000020 108.858055 8.189803 -156.674576 0.000030
[Rope1_Seg02]
26 139.999863 -0.000179 0.000000 25.884451 -13.852095 -13.547759 139.999863
27 139.999863 -0.000179 0.000000 23.673956 -14.479757 -12.617245 139.999863
[Rope1_Seg03]
26 139.999924 0.000060 -0.000060 29.197433 -29.532829 -14.542629 139.999924
27 139.999924 0.000060 -0.000060 26.981850 -29.026197 -14.173243 139.999924
[Rope1_Seg04]
26 139.999924 -0.000060 -0.000119 5.568591 -28.257809 4.355406 139.999924
27 139.999924 -0.000060 -0.000119 4.931686 -28.974844 4.690618 139.999924
[Rope1_Seg05]
26 139.999832 0.000119 -0.000060 -4.598951 -24.500465 17.774490 139.999832
27 139.999832 0.000119 -0.000060 -5.245704 -24.752146 19.000488 139.999832
[Rope1_Seg06]
26 139.999954 0.000119 -0.000060 -3.441038 -13.191403 8.175769 139.999954
27 139.999954 0.000119 -0.000060 -3.395282 -12.257276 7.666493 139.999954
[Rope1_Seg07]
26 139.999985 0.000060 0.000000 -2.347273 -6.501116 3.311355 139.999985
27 139.999985 0.000060 0.000000 -2.298058 -6.035283 3.115107 139.999985
[Rope1_Seg09]
26 121.602913 0.000119 -0.000089 -89.793175 -1.359789 0.847147 121.602913
27 121.602913 0.000119 -0.000089 -89.793175 -1.359789 0.847147 121.602913
[L_mid_hand01]
26 103.859421 1.038730 8.195221 130.544373 -67.584534 -38.866943 104.187431
27 103.859421 1.038730 8.195221 130.544373 -67.584534 -38.866943 104.187431
[L_mid_hand02]
26 105.572853 -4.139662 -10.864139 -168.923172 43.409309 -73.498886 106.211075
27 105.572853 -4.139662 -10.864139 -168.923172 43.409309 -73.498886 106.211075
[L_mid_hand03]
26 104.641464 17.579376 -3.913581 -6.012627 17.808174 74.893669 106.179977
27 104.641464 17.579376 -3.913581 -6.012626 17.808172 74.893661 106.179977
[null_rope02_connect]
26 328.732849 0.000179 -0.000119 -114.146324 29.133366 13.455335 328.732849
27 328.732849 0.000179 -0.000119 -114.879822 28.510376 12.907596 328.732849
[Rope2_Seg01]
26 -0.000114 0.000093 0.000000 -64.530411 21.207663 -10.506677 0.000147
27 -0.000122 0.000092 0.000000 -57.214291 16.964025 -8.928662 0.000153
[Rope2_Seg02]
26 139.999741 -0.000060 -0.000119 -12.777790 0.178549 9.318167 139.999756
27 139.999741 -0.000060 -0.000119 -12.958996 -0.262515 10.583769 139.999756
[Rope2_Seg03]
26 140.000107 0.000030 0.000000 -14.893887 -3.759605 16.746567 140.000107
27 140.000107 0.000030 0.000000 -14.085116 -5.457282 18.503548 140.000107
[Rope2_Seg04]
26 139.999802 0.000000 -0.000060 -11.445505 -14.390831 24.106462 139.999802
27 139.999802 0.000000 -0.000060 -9.434811 -14.984382 23.047932 139.999802
[Rope2_Seg05]
26 139.999985 -0.000060 0.000119 -5.499486 -8.743204 28.864735 139.999985
27 139.999985 -0.000060 0.000119 -3.576408 -5.778043 30.673386 139.999985
[Rope2_Seg06]
26 139.999893 -0.000030 -0.000119 2.143215 -5.355388 23.637194 139.999893
27 139.999893 -0.000030 -0.000119 3.893077 -3.249937 25.774317 139.999893
[Rope2_Seg07]
26 139.999893 0.000060 -0.000060 3.063792 -2.975991 11.284059 139.999893
27 139.999893 0.000060 -0.000060 3.693587 -1.539050 11.646322 139.999893
[Rope2_Seg09]
26 121.338966 0.000089 -0.000060 33.793236 -1.359788 -0.847141 121.338966
27 121.338966 0.000089 -0.000060 33.793236 -1.359788 -0.847141 121.338966
[R_mid_hand01]
26 104.680779 11.144459 -10.335981 -16.212063 45.237247 70.462852 105.778534
27 104.680779 11.144459 -10.335981 -16.212063 45.237247 70.462852 105.778534
[R_mid_hand02]
26 104.070427 2.443552 8.231699 49.067368 -67.749771 39.286453 104.424065
27 104.070427 2.443552 8.231699 49.067368 -67.749771 39.286453 104.424065
[R_mid_hand03]
26 106.028137 -11.221827 -5.996406 -177.101105 15.551026 -76.585571 106.788818
27 106.028137 -11.221827 -5.996406 -177.101105 15.551026 -76.585571 106.788818
[spine02]
26 129.756927 0.001550 0.000119 0.360061 -4.044797 -12.915058 129.756927
27 129.756927 0.001550 0.000119 0.360061 -4.044797 -12.915058 129.756927
[spine03]
26 78.614105 0.081609 -4.898989 1.896495 3.831288 16.473045 78.766647
27 78.614105 0.081614 -4.898989 1.896495 3.831288 16.473045 78.766647
[pelvis]
26 169.435242 0.051022 0.000000 -0.060465 -0.180225 14.087930 169.435257
27 169.435242 0.051022 0.000000 -0.060465 -0.180225 14.087930 169.435257
[null_rope03_connect]
26 -1.257226 -2.466202 137.391083 47.918633 -77.756371 31.565050 137.418976
27 -1.257226 -2.466202 137.391083 46.290382 -77.008469 32.750122 137.418976
[null_rope04_connect]
26 -1.259640 -2.480268 -137.844437 47.918633 -77.756371 31.565050 137.872513
27 -1.259640 -2.480268 -137.844437 46.290382 -77.008469 32.750122 137.872513
[Rope3_Seg01]
26 0.000010 0.000006 -0.000025 126.323776 -78.742958 9.386702 0.000028
27 0.000010 0.000005 -0.000020 110.026726 -78.839691 24.471111 0.000023
[Rope3_Seg02]
26 139.999924 -0.000119 0.000060 11.712923 -20.447317 -0.875375 139.999924
27 139.999924 -0.000119 0.000060 9.264238 -17.108725 -1.595536 139.999924
[Rope3_Seg03]
26 139.999924 -0.000119 0.000119 16.868027 -21.006496 6.858361 139.999924
27 139.999924 -0.000119 0.000119 16.985504 -21.390762 3.683004 139.999924
[Rope3_Seg04]
26 139.999924 0.000119 0.000000 12.388282 -13.617384 8.745109 139.999924
27 139.999924 0.000119 0.000000 14.795433 -15.355330 9.775634 139.999924
[Rope3_Seg05]
26 139.999924 -0.000238 0.000060 17.321432 -20.067202 2.279130 139.999924
27 139.999924 -0.000238 0.000060 17.498312 -19.260250 2.131075 139.999924
[Rope3_Seg06]
26 139.999893 -0.000119 -0.000060 17.762636 -16.343098 5.516708 139.999893
27 139.999893 -0.000119 -0.000060 22.213907 -19.498444 4.517251 139.999893
[Rope3_Seg07]
26 139.999771 0.000060 -0.000119 8.899457 -6.219213 5.924209 139.999771
27 139.999771 0.000060 -0.000119 11.310305 -7.364412 7.061277 139.999771
[Rope3_Seg08]
26 139.999985 -0.000060 0.000000 4.869655 -2.931039 3.849127 139.999985
27 139.999985 -0.000060 0.000000 5.806713 -3.193498 4.651380 139.999985
[Rope3_Seg09]
26 90.185997 -0.000179 -0.000060 89.793228 -1.359877 -0.847183 90.185997
27 90.185997 -0.000179 -0.000060 89.793228 -1.359877 -0.847183 90.185997
[R_rear_hand01]
26 103.366196 -6.073594 -10.757982 -177.714203 24.565960 -73.910950 104.101845
27 103.366196 -6.073594 -10.757982 -177.714203 24.565960 -73.910950 104.101845
[R_rear_hand02]
26 100.509819 12.039542 -7.992327 -12.874829 36.868488 72.167213 101.543350
27 100.509819 12.039542 -7.992327 -12.874829 36.868488 72.167213 101.543350
[R_rear_hand03]
26 101.539970 5.215704 5.435467 71.484581 -71.816628 21.513813 101.819031
27 101.539970 5.215704 5.435467 71.484581 -71.816628 21.513813 101.819031
[Rope4_Seg01]
26 -0.000013 0.000013 -0.000216 91.054604 -51.374287 -145.494827 0.000217
27 -0.000014 0.000010 -0.000219 84.545219 -49.491554 -140.113159 0.000219
[Rope4_Seg02]
26 139.999985 0.000060 0.000119 -16.275049 3.194859 -18.436390 139.999985
27 139.999985 0.000060 0.000119 -14.069530 0.468593 -17.858013 139.999985
[Rope4_Seg03]
26 139.999924 0.000000 -0.000238 -34.262203 16.989262 -37.016476 139.999924
27 139.999924 0.000000 -0.000238 -33.456810 10.180784 -34.902084 139.999924
[Rope4_Seg04]
26 139.999985 0.000000 0.000119 -11.741070 23.111795 -15.928862 139.999985
27 139.999985 0.000000 0.000119 -16.467625 20.537548 -18.446386 139.999985
[Rope4_Seg05]
26 139.999802 -0.000060 -0.000119 -3.748451 17.235935 -11.991459 139.999802
27 139.999802 -0.000060 -0.000119 -9.578396 18.796534 -17.985888 139.999802
[Rope4_Seg06]
26 139.999924 0.000000 0.000060 -1.356049 29.045052 -23.461805 139.999924
27 139.999924 0.000000 0.000060 -7.662607 28.561949 -26.921127 139.999924
[Rope4_Seg07]
26 139.999802 0.000000 0.000000 5.393553 15.481111 -12.967948 139.999802
27 139.999802 0.000000 0.000000 1.927622 13.288668 -10.045911 139.999802
[Rope4_Seg08]
26 139.999924 0.000000 0.000119 2.059185 5.747252 -5.930139 139.999924
27 139.999924 0.000000 0.000119 0.261685 5.463490 -4.517478 139.999924
[Rope4_Seg09]
26 90.185791 0.000060 0.000060 -135.617828 2.228885 0.850567 90.185791
27 90.185791 0.000060 0.000060 -135.617828 2.228885 0.850567 90.185791
[L_rear_hand01]
26 101.696655 -8.392275 -7.654577 -12.874829 -36.868488 107.832764 102.329041
27 101.696655 -8.392275 -7.654577 -12.874829 -36.868488 107.832764 102.329041
[L_rear_hand02]
26 102.726799 -1.568258 5.773216 71.484581 71.816628 158.486160 102.900848
27 102.726799 -1.568258 5.773216 71.484581 71.816628 158.486160 102.900848
[L_rear_hand03]
26 104.552910 9.721220 -10.420293 -177.714203 -24.565960 -106.089035 105.519653
27 104.552910 9.721220 -10.420293 -177.714203 -24.565960 -106.089035 105.519653
